<?xml version="1.0" encoding="UTF-8"?>
<svg xmlns="http://www.w3.org/2000/svg" xmlns:xlink="http://www.w3.org/1999/xlink" viewBox="0 0 916.62 594.35">
  <defs>
    <style>
      .cls-1 {
        stroke-width: .5px;
      }

      .cls-1, .cls-2, .cls-3, .cls-4 {
        fill: #e5c12c;
      }

      .cls-1, .cls-2, .cls-4 {
        stroke: #020202;
        stroke-miterlimit: 10;
      }

      .cls-5 {
        fill: #fff;
      }

      .cls-6 {
        font-family: Impact, Impact;
        font-size: 49.79px;
      }

      .cls-7 {
        letter-spacing: .16em;
      }

      .cls-8 {
        isolation: isolate;
      }

      .cls-9 {
        fill: url(#Degradado_sin_nombre_48);
        mix-blend-mode: multiply;
        opacity: .6;
      }

      .cls-10 {
        letter-spacing: .12em;
      }

      .cls-2 {
        font-family: Oblik-Bold, 'Oblik Bold';
        font-size: 17.45px;
        font-weight: 700;
      }

      .cls-2, .cls-4 {
        stroke-width: .25px;
      }

      .cls-11 {
        letter-spacing: .2em;
      }

      .cls-12 {
        fill: url(#Degradado_sin_nombre_145);
      }

      .cls-13 {
        letter-spacing: .2em;
      }

      .cls-3 {
        mix-blend-mode: hard-light;
        opacity: .4;
      }
    </style>
    <radialGradient id="Degradado_sin_nombre_145" data-name="Degradado sin nombre 145" cx="254.97" cy="341.44" fx="254.97" fy="341.44" r="219.72" gradientUnits="userSpaceOnUse">
      <stop offset="0" stop-color="#fafafa"/>
      <stop offset=".45" stop-color="#f7f6f9"/>
      <stop offset=".81" stop-color="#f0ecf5"/>
      <stop offset="1" stop-color="#eae4f3"/>
    </radialGradient>
    <radialGradient id="Degradado_sin_nombre_48" data-name="Degradado sin nombre 48" cx="269.93" cy="456.35" fx="269.93" fy="456.35" r="113.01" gradientTransform="translate(0 417.25) scale(1 .09)" gradientUnits="userSpaceOnUse">
      <stop offset=".15" stop-color="#cacaca"/>
      <stop offset=".24" stop-color="#ccc" stop-opacity=".94"/>
      <stop offset=".4" stop-color="#d4d4d4" stop-opacity=".8"/>
      <stop offset=".6" stop-color="#e1e1e1" stop-opacity=".55"/>
      <stop offset=".85" stop-color="#f3f3f3" stop-opacity=".23"/>
      <stop offset="1" stop-color="#fff" stop-opacity="0"/>
    </radialGradient>
  </defs>
  <g class="cls-8">
    <g id="BACKGROUND">
      <rect class="cls-5" y="94.35" width="500" height="500"/>
    </g>
    <g id="OBJECTS">
      <circle class="cls-12" cx="254.97" cy="341.44" r="219.72"/>
      <g>
        <path class="cls-1" d="m151.2,293.14s-50.73,17.65-34.1,75.21c0,0-.59,3.51,18.69,21.4,0,0-39.44-63.33,15.41-96.61Z"/>
        <path class="cls-1" d="m175.39,252.91c-.32-1.45-7.11-12.06-22.7-13.1-12.32-.83-20.8,9.1-21.55,15.67-.59,5.15,3.39,13.74,2.05,19.6,0,0-.12.77-.63,1.78-.04.09-.09.18-.14.26-.03.06-.07.12-.1.17-.08.14-.17.28-.26.42-.1.15-.22.31-.35.46,0,0,0,.01-.01.02-1.38,1.73-4,3.55-8.98,3.62,0,0,4.82-.77,6.97-3.96-1.56-2.03-5.03-5.85-10.4-8.06-.06-.02-.11-.04-.17-.07-.37-.15-.75-.28-1.14-.41-.3-.1-.61-.2-.96-.3-.26-.08-.53-.15-.8-.22-.26-.07-.53-.13-.8-.19-2.39-.51-5.08-.7-8.03-.31,0,0,0,0,0,0-3.54.57-7.32,2.21-10.68,5.91,0,0,2.31-5.29,9.45-7.12-2.5-2.33-8.34-7.12-13.89-6.87,0,0,8.21-3.91,10.44-12.5,2.24-8.59,10.53-12.79,12.48-12.18s4.65,4.12,7.45,3.63,2.71-3.1,2.71-3.1c0,0,3.98-1.02,5.57-1.73,1.59-.71,1.24-3.4-.84-6.37s-3.48-7.02-6.3-5.77c-2.83,1.24-7.19,2.19-10.79,2.29-3.6.1-5.2,1.18-8.71,3.88-3.51,2.7-13.08,8.57-19.53,15.39-6.45,6.83-9.82,10.63-12.81,12.52s-.64,3.7.21,6.33c.84,2.63-.23,9.62,3.39,15.37,2.54,4.04,5.95,7.71,7.76,9.54,0-1.39.39-2.15.39-2.15.02,2.34,1.94,5.63,2.54,6.6.32.51.68,1.05,1.08,1.58.92-4.23,3.02-5.59,3.02-5.59-1.49,2.06-1.84,4.83-1.68,7.55.08.96.36,3.46,1.14,6.32.33,1.17.67,2.13.89,2.73.37.98.81,1.95,1.32,2.88,2.42-4.25,5.7-5.43,5.7-5.43-2.91,2-4.45,4.8-5.17,7.71-.27,1.28-.64,3.69-.5,6.68.21,3.19.93,5.79,1.19,6.65.74,2.29,1.87,4.65,3.59,6.94,6.15,8.18,15.1,30.57,16.34,33.69-1.77-4.63-17.97-51.48,41.33-73.95,0,0,4.05,4.63,6.84,2.14,2.42-2.16,1.21-3.74,3.72-4.43.88-.24.29-1.83.29-1.83,0,0,1.41-.09,1.24-1.06-.12-.71-.2-3.33.97-3.36,1.31-.03,2.66-.24,2.83-.97.18-.78-1.05-5.8-1.66-8.19-.2-.79,0-1.63.54-2.25l2.26-2.58c.29-.33.46-.75.49-1.19l.5-7.49s3.19-4.16,2.88-5.61Z"/>
        <path class="cls-3" d="m96.55,276.15s6.96-7.65,16.85-5.87,13.14,7.73,13.14,7.73c0,0-14.69,12.83-29.99-1.86Z"/>
        <path class="cls-3" d="m95.52,273.17s1.71-5.28,7.68-6.65c0,0-6.11-5.67-13.55-4.94,0,0-8.22,4.84,5.87,11.59Z"/>
        <polygon class="cls-4" points="429.52 387.33 134.08 387.33 135.8 389.75 429.52 389.75 429.52 387.33"/>
        <path class="cls-3" d="m136.06,273.17s-.96-7.48-2.13-13.45c-1.17-5.97,4.15-14.67,14.3-16.86,10.15-2.19,21.23,4.69,22.19,8.85.96,4.16-25.18,35.76-34.35,21.45Z"/>
        <text class="cls-2" transform="translate(165.57 411.48)"><tspan class="cls-13" x="0" y="0">LA FUERZA ES</tspan><tspan class="cls-10" x="143.47" y="0">T</tspan><tspan class="cls-11" x="154.32" y="0">A EN</tspan><tspan class="cls-7" x="202.73" y="0"> </tspan><tspan class="cls-11" x="209.2" y="0">TI </tspan></text>
      </g>
      <ellipse class="cls-9" cx="269.93" cy="456.35" rx="117.83" ry="8.57"/>
      <text class="cls-6" transform="translate(132.17 387.33) scale(.89 1)"><tspan x="0" y="0">The Titan&apos;s Forge</tspan></text>
    </g>
  </g>
</svg>