<?xml version="1.0" encoding="UTF-8"?>
<svg xmlns="http://www.w3.org/2000/svg" xmlns:xlink="http://www.w3.org/1999/xlink" viewBox="0 0 5271.1 5271.1">
  <defs>
    <style>
      .cls-1 {
        mix-blend-mode: hard-light;
        opacity: .4;
      }

      .cls-1, .cls-2, .cls-3, .cls-4 {
        fill: #f1c100;
      }

      .cls-5 {
        isolation: isolate;
      }

      .cls-6 {
        fill: url(#Degradado_sin_nombre_48);
        mix-blend-mode: multiply;
        opacity: .6;
      }

      .cls-7 {
        letter-spacing: .2em;
      }

      .cls-8 {
        font-family: Impact, Impact;
        font-size: 564.14px;
      }

      .cls-9 {
        letter-spacing: .16em;
      }

      .cls-2, .cls-3, .cls-4 {
        stroke: #000;
        stroke-miterlimit: 10;
      }

      .cls-2, .cls-4 {
        stroke-width: .25px;
      }

      .cls-10 {
        fill: url(#Degradado_sin_nombre_145);
      }

      .cls-3 {
        stroke-width: .5px;
      }

      .cls-4 {
        font-family: Oblik-Bold, 'Oblik Bold';
        font-size: 197.71px;
        font-weight: 700;
      }

      .cls-11 {
        letter-spacing: .2em;
      }

      .cls-12 {
        letter-spacing: .13em;
      }
    </style>
    <radialGradient id="Degradado_sin_nombre_145" data-name="Degradado sin nombre 145" cx="2635.55" cy="2635.55" fx="2635.55" fy="2635.55" r="2635.55" gradientUnits="userSpaceOnUse">
      <stop offset="0" stop-color="#f9f9f9"/>
      <stop offset=".46" stop-color="#f7f5f8"/>
      <stop offset=".82" stop-color="#f0ebf5"/>
      <stop offset="1" stop-color="#ece4f3"/>
    </radialGradient>
    <radialGradient id="Degradado_sin_nombre_48" data-name="Degradado sin nombre 48" cx="2659.06" cy="3791.52" fx="2659.06" fy="3791.52" r="1280.47" gradientTransform="translate(0 3466.6) scale(1 .09)" gradientUnits="userSpaceOnUse">
      <stop offset=".15" stop-color="#cacaca"/>
      <stop offset=".24" stop-color="#ccc" stop-opacity=".94"/>
      <stop offset=".4" stop-color="#d4d4d4" stop-opacity=".8"/>
      <stop offset=".6" stop-color="#e1e1e1" stop-opacity=".55"/>
      <stop offset=".85" stop-color="#f3f3f3" stop-opacity=".23"/>
      <stop offset="1" stop-color="#fff" stop-opacity="0"/>
    </radialGradient>
  </defs>
  <g class="cls-5">
    <g id="Capa_1" data-name="Capa 1">
      <circle class="cls-10" cx="2635.55" cy="2635.55" r="2635.55"/>
      <g>
        <path class="cls-3" d="m1313.9,1942.25s-574.8,199.98-386.33,852.1c0,0-6.63,39.73,211.78,242.49,0,0-446.81-717.57,174.55-1094.6Z"/>
        <path class="cls-3" d="m1587.93,1486.48c-3.57-16.47-80.56-136.62-257.22-148.46-139.61-9.35-235.64,103.06-244.21,177.58-6.71,58.32,38.38,155.64,23.27,222.12-.01.09-1.33,8.78-7.13,20.22-.5,1.01-1,2.01-1.54,2.99-.36.65-.79,1.31-1.18,1.97-.94,1.59-1.9,3.18-2.96,4.7-1.17,1.72-2.54,3.47-3.93,5.23-.06.07-.11.15-.17.22-15.64,19.62-45.34,40.23-101.74,40.96,0,0,54.59-8.74,78.92-44.86-17.66-22.95-57.01-66.26-117.8-91.34-.64-.26-1.24-.51-1.93-.78-4.18-1.68-8.55-3.19-12.92-4.69-3.38-1.14-6.97-2.28-10.84-3.41-2.97-.87-5.98-1.7-9.03-2.47-2.92-.75-5.95-1.47-9.07-2.16-27.11-5.8-57.52-7.94-90.97-3.55,0,0,.03.03,0,0-40.08,6.41-82.89,25.08-121.04,66.97,0,0,26.14-59.91,107.05-80.72-28.27-26.37-94.48-80.73-157.33-77.84,0,0,92.97-44.33,118.3-141.67,25.33-97.35,119.28-144.96,141.37-137.98,22.09,6.98,52.71,46.71,84.43,41.14,31.73-5.58,30.68-35.08,30.68-35.08,0,0,45.09-11.56,63.08-19.57,17.98-8.01,14.01-38.53-9.47-72.15-23.48-33.61-39.39-79.51-71.41-65.43-32.02,14.08-81.43,24.8-122.21,25.92-40.78,1.12-58.93,13.38-98.66,44-39.73,30.62-148.15,97.07-221.27,174.41-73.12,77.34-111.21,120.45-145.1,141.83-33.89,21.38-7.21,41.87,2.35,71.67,9.56,29.8-2.63,109.02,38.39,174.2,28.79,45.76,67.4,87.34,87.9,108.12,0-15.72,4.42-24.41,4.42-24.41.22,26.54,22.02,63.77,28.79,74.72,3.61,5.8,7.71,11.87,12.26,17.88,10.44-47.92,34.22-63.36,34.22-63.36-16.88,23.32-20.87,54.73-19.02,85.59.93,10.91,4.04,39.17,12.96,71.66,3.79,13.31,7.56,24.11,10.1,30.94,4.21,11.06,9.2,22.07,15,32.66,27.4-48.11,64.57-61.53,64.57-61.53-33.03,22.61-50.37,54.33-58.59,87.39-3.02,14.48-7.29,41.8-5.7,75.64,2.4,36.19,10.52,65.65,13.48,75.4,8.34,25.92,21.19,52.73,40.67,78.64,69.68,92.72,171.1,346.32,185.09,381.72-20.05-52.48-203.61-583.28,468.23-837.83,0,0,45.93,52.42,77.52,24.29,27.43-24.44,13.74-42.36,42.11-50.23,9.95-2.76,3.33-20.7,3.33-20.7,0,0,15.94-.97,14.08-11.97-1.37-8.1-2.32-37.75,11.01-38.11,14.81-.4,30.18-2.7,32.11-11.01,2.05-8.82-11.93-65.74-18.83-92.83-2.29-9,0-18.51,6.11-25.49l25.64-29.27c3.28-3.75,5.24-8.47,5.57-13.44l5.69-84.89s36.16-47.09,32.59-63.55Z"/>
        <path class="cls-1" d="m694.67,1749.77s78.82-86.7,190.92-66.56c112.1,20.14,148.88,87.58,148.88,87.58,0,0-166.4,145.38-339.8-21.02Z"/>
        <path class="cls-1" d="m682.96,1715.99s19.4-59.85,87.01-75.37c0,0-69.28-64.29-153.52-55.98,0,0-93.11,54.87,66.51,131.35Z"/>
        <polygon class="cls-2" points="4467.37 3009.43 1119.87 3009.43 1139.35 3036.85 4467.37 3036.85 4467.37 3009.43"/>
        <path class="cls-1" d="m1142.29,1715.99s-10.88-84.73-24.18-152.42c-13.3-67.69,46.99-166.18,161.97-190.98,114.98-24.8,240.54,53.18,251.42,100.33,10.88,47.14-285.27,405.16-389.22,243.07Z"/>
        <text class="cls-4" transform="translate(1476.65 3283.07)"><tspan class="cls-7" x="0" y="0">LA FUERZA ES</tspan><tspan class="cls-12" x="1625.57" y="0">T</tspan><tspan class="cls-7" x="1748.55" y="0">A EN</tspan><tspan class="cls-9" x="2296.99" y="0"> </tspan><tspan class="cls-11" x="2370.35" y="0">TI </tspan></text>
      </g>
      <ellipse class="cls-6" cx="2659.06" cy="3791.52" rx="1335.01" ry="97.09"/>
      <text class="cls-8" transform="translate(1098.28 3009.43) scale(.89 1)"><tspan x="0" y="0">The Titan&apos;s Forge</tspan></text>
    </g>
  </g>
</svg>